<svg xmlns="http://www.w3.org/2000/svg" viewBox="0 0 640 640" width="640" height="640" color="#111">
<path d="M 476.8 520.0 L 40.0 520.0 L 300.0 69.7 L 518.4 447.9" stroke="currentColor" stroke-width="10.0" fill="none" stroke-linecap="round" stroke-linejoin="miter"/>
<path d="M 498.4 520.0 L 175.2 520.0 L 367.6 186.8 L 529.2 466.7" stroke="currentColor" stroke-width="7.4" fill="none" stroke-linecap="round" stroke-linejoin="miter"/>
<path d="M 514.4 520.0 L 275.2 520.0 L 417.6 273.4 L 537.2 480.5" stroke="currentColor" stroke-width="5.5" fill="none" stroke-linecap="round" stroke-linejoin="miter"/>
<path d="M 526.3 520.0 L 349.3 520.0 L 454.6 337.5 L 543.1 490.8" stroke="currentColor" stroke-width="4.1" fill="none" stroke-linecap="round" stroke-linejoin="miter"/>
<path d="M 535.1 520.0 L 404.1 520.0 L 482.0 385.0 L 547.5 498.4" stroke="currentColor" stroke-width="3.0" fill="none" stroke-linecap="round" stroke-linejoin="miter"/>
<path d="M 541.5 520.0 L 444.6 520.0 L 502.3 420.1 L 550.8 504.0" stroke="currentColor" stroke-width="2.2" fill="none" stroke-linecap="round" stroke-linejoin="miter"/>
<path d="M 546.3 520.0 L 474.6 520.0 L 517.3 446.1 L 553.2 508.2" stroke="currentColor" stroke-width="2.2" fill="none" stroke-linecap="round" stroke-linejoin="miter"/>
<path d="M 549.9 520.0 L 496.8 520.0 L 528.4 465.3 L 554.9 511.2" stroke="currentColor" stroke-width="2.2" fill="none" stroke-linecap="round" stroke-linejoin="miter"/>
<path d="M 552.5 520.0 L 513.2 520.0 L 536.6 479.5 L 556.3 513.5" stroke="currentColor" stroke-width="2.2" fill="none" stroke-linecap="round" stroke-linejoin="miter"/>
<path d="M 554.5 520.0 L 525.4 520.0 L 542.7 490.0 L 557.2 515.2" stroke="currentColor" stroke-width="2.2" fill="none" stroke-linecap="round" stroke-linejoin="miter"/>
<path d="M 555.9 520.0 L 534.4 520.0 L 547.2 497.8 L 558.0 516.5" stroke="currentColor" stroke-width="2.2" fill="none" stroke-linecap="round" stroke-linejoin="miter"/>
<circle cx="574.0" cy="520.0" r="9" fill="#f5a623"/>
<circle cx="574.0" cy="520.0" r="4" fill="#fff8e7"/>
</svg>
