<svg xmlns="http://www.w3.org/2000/svg" viewBox="0 0 640 640" width="640" height="640">
<path d="M 507.0 552.0 L 65.0 552.0 L 325.0 101.7 L 546.0 484.5" stroke="#e9e9e9" stroke-width="9.0" fill="none" stroke-linecap="round"/>
<path d="M 325.0 552.0 L 195.0 326.8 L 455.0 326.8 Z" stroke="#e9e9e9" stroke-width="2.4" fill="none" opacity="0.32"/>
<path d="M 483.4 536.5 L 130.5 515.5 L 359.5 168.2 L 517.8 484.4" stroke="#e9e9e9" stroke-width="7.2" fill="none" stroke-linecap="round"/>
<path d="M 338.1 527.9 L 245.0 341.9 L 452.6 354.2 Z" stroke="#e9e9e9" stroke-width="1.9" fill="none" opacity="0.26"/>
<path d="M 465.4 523.0 L 184.5 489.5 L 383.8 223.0 L 495.3 483.0" stroke="#e9e9e9" stroke-width="5.8" fill="none" stroke-linecap="round"/>
<path d="M 451.6 511.3 L 228.9 471.3 L 400.7 267.9 L 477.4 480.8" stroke="#e9e9e9" stroke-width="4.6" fill="none" stroke-linecap="round"/>
<path d="M 441.1 501.4 L 265.2 458.8 L 412.0 304.6 L 463.2 478.2" stroke="#e9e9e9" stroke-width="3.7" fill="none" stroke-linecap="round"/>
<path d="M 433.2 492.9 L 294.7 450.6 L 419.4 334.4 L 451.9 475.5" stroke="#e9e9e9" stroke-width="2.9" fill="none" stroke-linecap="round"/>
<path d="M 427.3 485.8 L 318.7 445.4 L 423.8 358.5 L 443.1 472.8" stroke="#e9e9e9" stroke-width="2.4" fill="none" stroke-linecap="round"/>
<path d="M 423.0 479.9 L 338.2 442.5 L 426.2 378.0 L 436.2 470.2" stroke="#e9e9e9" stroke-width="1.9" fill="none" stroke-linecap="round"/>
<path d="M 419.8 474.9 L 353.8 441.0 L 427.1 393.7 L 430.8 467.8" stroke="#e9e9e9" stroke-width="1.7" fill="none" stroke-linecap="round"/>
<path d="M 417.4 470.8 L 366.4 440.6 L 427.2 406.3 L 426.6 465.6" stroke="#e9e9e9" stroke-width="1.7" fill="none" stroke-linecap="round"/>
<path d="M 415.8 467.4 L 376.4 440.8 L 426.6 416.4 L 423.3 463.7" stroke="#e9e9e9" stroke-width="1.7" fill="none" stroke-linecap="round"/>
<path d="M 148.2 548.0 L 205.4 308.8 L 210.4 394.3 L 288.5 350.4 L 292.0 396.6 L 339.1 381.1 L 342.8 405.8 L 369.7 403.3 L 373.7 416.5 L 388.1 418.9 L 392.0 426.1 L 399.0 429.8 L 591.0 550.0" stroke="#f5a623" stroke-width="3.4" fill="none" opacity="0.8" stroke-linejoin="round" stroke-linecap="round"/>
<circle cx="205.4" cy="308.8" r="3.4" fill="#f5a623" opacity="0.55"/>
<circle cx="210.4" cy="394.3" r="3.2" fill="#f5a623" opacity="0.55"/>
<circle cx="288.5" cy="350.4" r="3.0" fill="#f5a623" opacity="0.55"/>
<circle cx="292.0" cy="396.6" r="2.9" fill="#f5a623" opacity="0.55"/>
<circle cx="339.1" cy="381.1" r="2.7" fill="#f5a623" opacity="0.55"/>
<circle cx="342.8" cy="405.8" r="2.5" fill="#f5a623" opacity="0.55"/>
<circle cx="369.7" cy="403.3" r="2.3" fill="#f5a623" opacity="0.55"/>
<circle cx="373.7" cy="416.5" r="2.1" fill="#f5a623" opacity="0.55"/>
<circle cx="388.1" cy="418.9" r="2.0" fill="#f5a623" opacity="0.55"/>
<circle cx="392.0" cy="426.1" r="1.8" fill="#f5a623" opacity="0.55"/>
<circle cx="399.0" cy="429.8" r="1.6" fill="#f5a623" opacity="0.55"/>
<circle cx="591.0" cy="550.0" r="10" fill="#f5a623"/>
<circle cx="591.0" cy="550.0" r="4.5" fill="#fff8e7"/>
</svg>
