<svg xmlns="http://www.w3.org/2000/svg" viewBox="0 0 640 640" width="640" height="640" color="#111">
<path d="M 514.4 560.0 L 50.0 560.0 L 320.0 92.3 L 552.2 494.5" stroke="currentColor" stroke-width="9.5" fill="none" stroke-linecap="round"/>
<path d="M 493.9 539.4 L 122.4 539.4 L 338.4 165.3 L 524.1 487.0" stroke="currentColor" stroke-width="7.6" fill="none" stroke-linecap="round"/>
<path d="M 477.5 523.0 L 180.2 523.0 L 353.0 223.7 L 501.7 481.1" stroke="currentColor" stroke-width="6.1" fill="none" stroke-linecap="round"/>
<path d="M 464.3 509.8 L 226.6 509.8 L 364.8 270.4 L 483.7 476.3" stroke="currentColor" stroke-width="4.9" fill="none" stroke-linecap="round"/>
<path d="M 453.8 499.3 L 263.6 499.3 L 374.2 307.7 L 469.3 472.4" stroke="currentColor" stroke-width="3.9" fill="none" stroke-linecap="round"/>
<path d="M 445.4 490.8 L 293.2 490.8 L 381.7 337.6 L 457.8 469.4" stroke="currentColor" stroke-width="3.1" fill="none" stroke-linecap="round"/>
<path d="M 438.7 484.1 L 317.0 484.1 L 387.7 361.5 L 448.6 466.9" stroke="currentColor" stroke-width="2.5" fill="none" stroke-linecap="round"/>
<path d="M 433.3 478.7 L 335.9 478.7 L 392.5 380.6 L 441.2 465.0" stroke="currentColor" stroke-width="2.0" fill="none" stroke-linecap="round"/>
<path d="M 429.0 474.4 L 351.1 474.4 L 396.4 395.9 L 435.4 463.4" stroke="currentColor" stroke-width="2.0" fill="none" stroke-linecap="round"/>
<path d="M 425.6 470.9 L 363.2 470.9 L 399.5 408.2 L 430.6 462.1" stroke="currentColor" stroke-width="2.0" fill="none" stroke-linecap="round"/>
<path d="M 422.8 468.2 L 373.0 468.2 L 401.9 417.9 L 426.9 461.1" stroke="currentColor" stroke-width="2.0" fill="none" stroke-linecap="round"/>
<path d="M 420.6 466.0 L 380.7 466.0 L 403.9 425.8 L 423.9 460.3" stroke="currentColor" stroke-width="2.0" fill="none" stroke-linecap="round"/>
<circle cx="596.0" cy="558.0" r="10" fill="#f5a623"/>
<circle cx="596.0" cy="558.0" r="4.5" fill="#fff8e7"/>
</svg>
